  0
SECTION
  2
HEADER
  9
$ACADVER
  1
AC1015
  9
$ACADMAINTVER
 70
     6
  9
$DWGCODEPAGE
  3
ANSI_936
  9
$INSBASE
 10
0.0
 20
0.0
 30
0.0
  9
$EXTMIN
 10
-24.6695100945
 20
-24.8669589387
 30
0.0
  9
$EXTMAX
 10
24.9334794694
 20
25.1330410613
 30
0.0
  9
$LIMMIN
 10
0.0
 20
0.0
  9
$LIMMAX
 10
420.0
 20
297.0
  9
$ORTHOMODE
 70
     0
  9
$REGENMODE
 70
     1
  9
$FILLMODE
 70
     1
  9
$QTEXTMODE
 70
     0
  9
$MIRRTEXT
 70
     1
  9
$LTSCALE
 40
1.0
  9
$ATTMODE
 70
     1
  9
$TEXTSIZE
 40
3.175
  9
$TRACEWID
 40
1.0
  9
$TEXTSTYLE
  7
Standard
  9
$CLAYER
  8
0
  9
$CELTYPE
  6
ByLayer
  9
$CECOLOR
 62
   256
  9
$CELTSCALE
 40
1.0
  9
$DISPSILH
 70
     0
  9
$DIMSCALE
 40
1.0
  9
$DIMASZ
 40
3.302
  9
$DIMEXO
 40
0.0
  9
$DIMDLI
 40
3.75
  9
$DIMRND
 40
0.0
  9
$DIMDLE
 40
0.0
  9
$DIMEXE
 40
3.175
  9
$DIMTP
 40
0.0
  9
$DIMTM
 40
0.0
  9
$DIMTXT
 40
3.175
  9
$DIMCEN
 40
2.5
  9
$DIMTSZ
 40
0.0
  9
$DIMTOL
 70
     0
  9
$DIMLIM
 70
     0
  9
$DIMTIH
 70
     1
  9
$DIMTOH
 70
     1
  9
$DIMSE1
 70
     0
  9
$DIMSE2
 70
     0
  9
$DIMTAD
 70
     0
  9
$DIMZIN
 70
     1
  9
$DIMBLK
  1

  9
$DIMASO
 70
     1
  9
$DIMSHO
 70
     1
  9
$DIMPOST
  1

  9
$DIMAPOST
  1

  9
$DIMALT
 70
     0
  9
$DIMALTD
 70
     3
  9
$DIMALTF
 40
0.0393700787
  9
$DIMLFAC
 40
1.0
  9
$DIMTOFL
 70
     1
  9
$DIMTVP
 40
0.0
  9
$DIMTIX
 70
     0
  9
$DIMSOXD
 70
     0
  9
$DIMSAH
 70
     0
  9
$DIMBLK1
  1

  9
$DIMBLK2
  1

  9
$DIMSTYLE
  2
ISO-25
  9
$DIMCLRD
 70
     0
  9
$DIMCLRE
 70
     0
  9
$DIMCLRT
 70
     0
  9
$DIMTFAC
 40
1.0
  9
$DIMGAP
 40
1.524
  9
$DIMJUST
 70
     0
  9
$DIMSD1
 70
     0
  9
$DIMSD2
 70
     0
  9
$DIMTOLJ
 70
     0
  9
$DIMTZIN
 70
     1
  9
$DIMALTZ
 70
     0
  9
$DIMALTTZ
 70
     0
  9
$DIMUPT
 70
     0
  9
$DIMDEC
 70
     2
  9
$DIMTDEC
 70
     2
  9
$DIMALTU
 70
     2
  9
$DIMALTTD
 70
     3
  9
$DIMTXSTY
  7
Standard
  9
$DIMAUNIT
 70
     0
  9
$DIMADEC
 70
     2
  9
$DIMALTRND
 40
0.0
  9
$DIMAZIN
 70
     0
  9
$DIMDSEP
 70
    44
  9
$DIMATFIT
 70
     3
  9
$DIMFRAC
 70
     0
  9
$DIMLDRBLK
  1

  9
$DIMLUNIT
 70
     2
  9
$DIMLWD
 70
    -2
  9
$DIMLWE
 70
    -2
  9
$DIMTMOVE
 70
     0
  9
$LUNITS
 70
     2
  9
$LUPREC
 70
     2
  9
$SKETCHINC
 40
1.0
  9
$FILLETRAD
 40
10.0
  9
$AUNITS
 70
     0
  9
$AUPREC
 70
     2
  9
$MENU
  1
.
  9
$ELEVATION
 40
0.0
  9
$PELEVATION
 40
0.0
  9
$THICKNESS
 40
0.0
  9
$LIMCHECK
 70
     0
  9
$CHAMFERA
 40
0.0
  9
$CHAMFERB
 40
0.0
  9
$CHAMFERC
 40
0.0
  9
$CHAMFERD
 40
0.0
  9
$SKPOLY
 70
     0
  9
$TDCREATE
 40
2459768.427511458
  9
$TDUCREATE
 40
2459768.094178125
  9
$TDUPDATE
 40
2459768.427553449
  9
$TDUUPDATE
 40
2459768.094220116
  9
$TDINDWG
 40
0.0000000116
  9
$TDUSRTIMER
 40
0.0000000116
  9
$USRTIMER
 70
     1
  9
$ANGBASE
 50
0.0
  9
$ANGDIR
 70
     0
  9
$PDMODE
 70
     0
  9
$PDSIZE
 40
-1.0
  9
$PLINEWID
 40
0.0
  9
$SPLFRAME
 70
     0
  9
$SPLINETYPE
 70
     6
  9
$SPLINESEGS
 70
     8
  9
$HANDSEED
  5
D9
  9
$SURFTAB1
 70
     6
  9
$SURFTAB2
 70
     6
  9
$SURFTYPE
 70
     6
  9
$SURFU
 70
     6
  9
$SURFV
 70
     6
  9
$UCSBASE
  2

  9
$UCSNAME
  2

  9
$UCSORG
 10
0.0
 20
0.0
 30
0.0
  9
$UCSXDIR
 10
1.0
 20
0.0
 30
0.0
  9
$UCSYDIR
 10
0.0
 20
1.0
 30
0.0
  9
$UCSORTHOREF
  2

  9
$UCSORTHOVIEW
 70
     0
  9
$UCSORGTOP
 10
0.0
 20
0.0
 30
0.0
  9
$UCSORGBOTTOM
 10
0.0
 20
0.0
 30
0.0
  9
$UCSORGLEFT
 10
0.0
 20
0.0
 30
0.0
  9
$UCSORGRIGHT
 10
0.0
 20
0.0
 30
0.0
  9
$UCSORGFRONT
 10
0.0
 20
0.0
 30
0.0
  9
$UCSORGBACK
 10
0.0
 20
0.0
 30
0.0
  9
$PUCSBASE
  2

  9
$PUCSNAME
  2

  9
$PUCSORG
 10
0.0
 20
0.0
 30
0.0
  9
$PUCSXDIR
 10
1.0
 20
0.0
 30
0.0
  9
$PUCSYDIR
 10
0.0
 20
1.0
 30
0.0
  9
$PUCSORTHOREF
  2

  9
$PUCSORTHOVIEW
 70
     0
  9
$PUCSORGTOP
 10
0.0
 20
0.0
 30
0.0
  9
$PUCSORGBOTTOM
 10
0.0
 20
0.0
 30
0.0
  9
$PUCSORGLEFT
 10
0.0
 20
0.0
 30
0.0
  9
$PUCSORGRIGHT
 10
0.0
 20
0.0
 30
0.0
  9
$PUCSORGFRONT
 10
0.0
 20
0.0
 30
0.0
  9
$PUCSORGBACK
 10
0.0
 20
0.0
 30
0.0
  9
$USERI1
 70
     0
  9
$USERI2
 70
     0
  9
$USERI3
 70
     0
  9
$USERI4
 70
     0
  9
$USERI5
 70
     0
  9
$USERR1
 40
0.0
  9
$USERR2
 40
0.0
  9
$USERR3
 40
0.0
  9
$USERR4
 40
0.0
  9
$USERR5
 40
0.0
  9
$WORLDVIEW
 70
     1
  9
$SHADEDGE
 70
     3
  9
$SHADEDIF
 70
    70
  9
$TILEMODE
 70
     1
  9
$MAXACTVP
 70
    64
  9
$PINSBASE
 10
0.0
 20
0.0
 30
0.0
  9
$PLIMCHECK
 70
     0
  9
$PEXTMIN
 10
1.0000000000E+20
 20
1.0000000000E+20
 30
1.0000000000E+20
  9
$PEXTMAX
 10
-1.0000000000E+20
 20
-1.0000000000E+20
 30
-1.0000000000E+20
  9
$PLIMMIN
 10
0.0
 20
0.0
  9
$PLIMMAX
 10
420.0
 20
297.0
  9
$UNITMODE
 70
     0
  9
$VISRETAIN
 70
     1
  9
$PLINEGEN
 70
     0
  9
$PSLTSCALE
 70
     1
  9
$TREEDEPTH
 70
  3020
  9
$CMLSTYLE
  2
Standard
  9
$CMLJUST
 70
     0
  9
$CMLSCALE
 40
20.0
  9
$PROXYGRAPHICS
 70
     1
  9
$MEASUREMENT
 70
     1
  9
$CELWEIGHT
370
    -1
  9
$ENDCAPS
280
     0
  9
$JOINSTYLE
280
     0
  9
$LWDISPLAY
290
     1
  9
$INSUNITS
 70
     4
  9
$HYPERLINKBASE
  1

  9
$STYLESHEET
  1

  9
$XEDIT
290
     1
  9
$CEPSNTYPE
380
     0
  9
$PSTYLEMODE
290
     1
  9
$FINGERPRINTGUID
  2
{5339c8d5-9e09-4579-96d7-6bb1bd2215ea}
  9
$VERSIONGUID
  2
{FAEB1C32-E019-11D5-929B-00C0DF256EC4}
  9
$EXTNAMES
290
     1
  9
$PSVPSCALE
 40
0.0
  9
$OLESTARTUP
290
     0
  0
ENDSEC
  0
SECTION
  2
CLASSES
  0
CLASS
  1
ACDBDICTIONARYWDFLT
  2
AcDbDictionaryWithDefault
  3
ObjectDBX Classes
 90
        0
280
     0
281
     0
  0
CLASS
  1
VISUALSTYLE
  2
AcDbVisualStyle
  3
ObjectDBX Classes
 90
     4095
280
     0
281
     0
  0
CLASS
  1
MATERIAL
  2
AcDbMaterial
  3
ObjectDBX Classes
 90
     1153
280
     0
281
     0
  0
CLASS
  1
SCALE
  2
AcDbScale
  3
ObjectDBX Classes
 90
     1153
280
     0
281
     0
  0
CLASS
  1
TABLESTYLE
  2
AcDbTableStyle
  3
ObjectDBX Classes
 90
     4095
280
     0
281
     0
  0
CLASS
  1
MLEADERSTYLE
  2
AcDbMLeaderStyle
  3
ACDB_MLEADERSTYLE_CLASS
 90
     4095
280
     0
281
     0
  0
CLASS
  1
SUN
  2
AcDbSun
  3
SCENEOE
 90
     1153
280
     0
281
     0
  0
CLASS
  1
ACDBPLACEHOLDER
  2
AcDbPlaceHolder
  3
ObjectDBX Classes
 90
        0
280
     0
281
     0
  0
CLASS
  1
LAYOUT
  2
AcDbLayout
  3
ObjectDBX Classes
 90
        0
280
     0
281
     0
  0
ENDSEC
  0
SECTION
  2
TABLES
  0
TABLE
  2
VPORT
  5
8
330
0
100
AcDbSymbolTable
 70
     1
  0
VPORT
  5
29
330
8
100
AcDbSymbolTableRecord
100
AcDbViewportTableRecord
  2
*Active
 70
     0
 10
0.0
 20
0.0
 11
1.0
 21
1.0
 12
0.1319846875
 22
0.1330410613
 13
0.0
 23
0.0
 14
10.0
 24
10.0
 15
10.0
 25
10.0
 16
0.0
 26
0.0
 36
1.0
 17
0.0
 27
0.0
 37
0.0
 40
51.0
 41
0.9920597913
 42
50.0
 43
0.0
 44
0.0
 50
0.0
 51
0.0
 71
     0
 72
   100
 73
     1
 74
     3
 75
     0
 76
     0
 77
     0
 78
     0
281
     0
 65
     1
110
0.0
120
0.0
130
0.0
111
1.0
121
0.0
131
0.0
112
0.0
122
1.0
132
0.0
 79
     0
146
0.0
  0
ENDTAB
  0
TABLE
  2
LTYPE
  5
5
330
0
100
AcDbSymbolTable
 70
     6
  0
LTYPE
  5
14
330
5
100
AcDbSymbolTableRecord
100
AcDbLinetypeTableRecord
  2
ByBlock
 70
     0
  3

 72
    65
 73
     0
 40
0.0
  0
LTYPE
  5
15
330
5
100
AcDbSymbolTableRecord
100
AcDbLinetypeTableRecord
  2
ByLayer
 70
     0
  3

 72
    65
 73
     0
 40
0.0
  0
LTYPE
  5
16
330
5
100
AcDbSymbolTableRecord
100
AcDbLinetypeTableRecord
  2
Continuous
 70
     0
  3
Solid line
 72
    65
 73
     0
 40
0.0
  0
LTYPE
  5
6E
330
5
100
AcDbSymbolTableRecord
100
AcDbLinetypeTableRecord
  2
HIDDEN
 70
     0
  3
Hidden __ __ __ __ __ __ __ __ __ __ __ __ __ __
 72
    65
 73
     2
 40
1.905
 49
1.27
 74
     0
 49
-0.635
 74
     0
  0
LTYPE
  5
6F
330
5
100
AcDbSymbolTableRecord
100
AcDbLinetypeTableRecord
  2
PHANTOM
 70
     0
  3
Phantom ______  __  __  ______  __  __  ______
 72
    65
 73
     6
 40
12.7
 49
6.35
 74
     0
 49
-1.27
 74
     0
 49
1.27
 74
     0
 49
-1.27
 74
     0
 49
1.27
 74
     0
 49
-1.27
 74
     0
  0
LTYPE
  5
70
330
5
100
AcDbSymbolTableRecord
100
AcDbLinetypeTableRecord
  2
CENTER
 70
     0
  3
Center ____ _ ____ _ ____ _ ____ _ ____ _ ____
 72
    65
 73
     4
 40
10.16
 49
6.35
 74
     0
 49
-1.27
 74
     0
 49
1.27
 74
     0
 49
-1.27
 74
     0
  0
LTYPE
  5
71
330
5
100
AcDbSymbolTableRecord
100
AcDbLinetypeTableRecord
  2
CENTERX2
 70
     0
  3
Center (2x) ________  __  ________  __  _____
 72
    65
 73
     4
 40
20.32
 49
12.7
 74
     0
 49
-2.54
 74
     0
 49
2.54
 74
     0
 49
-2.54
 74
     0
  0
LTYPE
  5
72
330
5
100
AcDbSymbolTableRecord
100
AcDbLinetypeTableRecord
  2
DOT2
 70
     0
  3
Dot (.5x) ........................................
 72
    65
 73
     2
 40
0.635
 49
0.0
 74
     0
 49
-0.635
 74
     0
  0
ENDTAB
  0
TABLE
  2
LAYER
  5
2
330
0
100
AcDbSymbolTable
 70
     1
  0
LAYER
  5
10
330
2
100
AcDbSymbolTableRecord
100
AcDbLayerTableRecord
  2
0
 70
     0
 62
     7
  6
Continuous
370
    -3
390
F
  0
ENDTAB
  0
TABLE
  2
STYLE
  5
3
330
0
100
AcDbSymbolTable
 70
     1
  0
STYLE
  5
11
330
3
100
AcDbSymbolTableRecord
100
AcDbTextStyleTableRecord
  2
Standard
 70
     0
 40
0.0
 41
1.0
 50
0.0
 71
     0
 42
3.175
  3
txt
  4

  0
ENDTAB
  0
TABLE
  2
VIEW
  5
6
330
0
100
AcDbSymbolTable
 70
     0
  0
ENDTAB
  0
TABLE
  2
UCS
  5
7
330
0
100
AcDbSymbolTable
 70
     0
  0
ENDTAB
  0
TABLE
  2
APPID
  5
9
330
0
100
AcDbSymbolTable
 70
     1
  0
APPID
  5
12
330
9
100
AcDbSymbolTableRecord
100
AcDbRegAppTableRecord
  2
ACAD
 70
     0
  0
ENDTAB
  0
TABLE
  2
DIMSTYLE
  5
A
330
0
100
AcDbSymbolTable
 70
     1
100
AcDbDimStyleTable
  0
DIMSTYLE
105
27
330
A
100
AcDbSymbolTableRecord
100
AcDbDimStyleTableRecord
  2
ISO-25
 70
     0
 41
2.5
 42
0.625
 43
3.75
 44
1.25
 73
     0
 74
     0
 77
     1
 78
     8
140
2.5
141
2.5
143
0.0393700787
147
0.625
171
     3
172
     1
178
     0
271
     2
272
     2
274
     3
278
    44
283
     0
284
     8
340
11
  0
ENDTAB
  0
TABLE
  2
BLOCK_RECORD
  5
1
330
0
100
AcDbSymbolTable
 70
     1
  0
BLOCK_RECORD
  5
1F
330
1
100
AcDbSymbolTableRecord
100
AcDbBlockTableRecord
  2
*Model_Space
340
22
  0
BLOCK_RECORD
  5
1B
330
1
100
AcDbSymbolTableRecord
100
AcDbBlockTableRecord
  2
*Paper_Space
340
1E
  0
BLOCK_RECORD
  5
23
330
1
100
AcDbSymbolTableRecord
100
AcDbBlockTableRecord
  2
*Paper_Space0
340
26
  0
ENDTAB
  0
ENDSEC
  0
SECTION
  2
BLOCKS
  0
BLOCK
  5
20
330
1F
100
AcDbEntity
  8
0
100
AcDbBlockBegin
  2
*Model_Space
 70
     0
 10
0.0
 20
0.0
 30
0.0
  3
*Model_Space
  1

  0
ENDBLK
  5
21
330
1F
100
AcDbEntity
  8
0
100
AcDbBlockEnd
  0
BLOCK
  5
1C
330
1B
100
AcDbEntity
 67
     1
  8
0
100
AcDbBlockBegin
  2
*Paper_Space
 70
     0
 10
0.0
 20
0.0
 30
0.0
  3
*Paper_Space
  1

  0
ENDBLK
  5
1D
330
1B
100
AcDbEntity
 67
     1
  8
0
100
AcDbBlockEnd
  0
BLOCK
  5
24
330
23
100
AcDbEntity
  8
0
100
AcDbBlockBegin
  2
*Paper_Space0
 70
     0
 10
0.0
 20
0.0
 30
0.0
  3
*Paper_Space0
  1

  0
ENDBLK
  5
25
330
23
100
AcDbEntity
  8
0
100
AcDbBlockEnd
  0
ENDSEC
  0
SECTION
  2
ENTITIES
  0
CIRCLE
  5
73
330
1F
100
AcDbEntity
  8
0
  6
Continuous
 62
     7
370
    25
100
AcDbCircle
 10
-19.1738932648
 20
-19.4945283517
 30
0.0
 40
1.250000000000007
  0
CIRCLE
  5
84
330
1F
100
AcDbEntity
  8
0
  6
Continuous
 62
     7
370
    25
100
AcDbCircle
 10
-19.2231081213
 20
19.0005055628
 30
0.0
 40
1.249999999999979
  0
CIRCLE
  5
85
330
1F
100
AcDbEntity
  8
0
  6
Continuous
 62
     7
370
    25
100
AcDbCircle
 10
18.7368801006
 20
19.0005055628
 30
0.0
 40
1.249999999999996
  0
CIRCLE
  5
86
330
1F
100
AcDbEntity
  8
0
  6
Continuous
 62
     7
370
    25
100
AcDbCircle
 10
18.8118998401
 20
-19.484620836
 30
0.0
 40
1.249999999999986
  0
SPLINE
  5
87
330
1F
100
AcDbEntity
  8
0
  6
Continuous
 62
     7
370
    25
100
AcDbSpline
210
0.0
220
0.0
230
1.0
 70
    11
 71
     3
 72
    46
 73
    42
 74
     0
 42
0.00000001
 43
0.00000001
 40
0.0
 40
0.0
 40
0.0
 40
0.0
 40
0.0624999999999974
 40
0.0624999999999974
 40
0.1249999999999949
 40
0.1249999999999949
 40
0.1562499999999941
 40
0.1562499999999941
 40
0.1874999999999934
 40
0.1874999999999934
 40
0.2499999999999927
 40
0.2499999999999927
 40
0.312499999999992
 40
0.312499999999992
 40
0.343749999999992
 40
0.343749999999992
 40
0.3749999999999919
 40
0.3749999999999919
 40
0.4374999999999909
 40
0.4374999999999909
 40
0.4999999999999899
 40
0.4999999999999899
 40
0.5624999999999889
 40
0.5624999999999889
 40
0.6249999999999879
 40
0.6249999999999879
 40
0.6562499999999879
 40
0.6562499999999879
 40
0.687499999999988
 40
0.687499999999988
 40
0.7499999999999887
 40
0.7499999999999887
 40
0.8124999999999895
 40
0.8124999999999895
 40
0.8437499999999909
 40
0.8437499999999909
 40
0.8749999999999922
 40
0.8749999999999922
 40
0.9374999999999961
 40
0.9374999999999961
 40
1.0
 40
1.0
 40
1.0
 40
1.0
 10
17.62219656931269
 20
19.0005055628493
 30
0.0
 10
17.6221965693127
 20
19.13984100425555
 30
0.0
 10
17.64932542008529
 20
19.28659575310954
 30
0.0
 10
17.76232387581032
 20
19.56163205909398
 30
0.0
 10
17.84807595365788
 20
19.68903241054614
 30
0.0
 10
18.00438969935992
 20
19.84392589172716
 30
0.0
 10
18.06091469540745
 20
19.88966235845636
 30
0.0
 10
18.17880758036152
 20
19.96801995464779
 30
0.0
 10
18.24005433326635
 20
20.00092278800826
 30
0.0
 10
18.43865160828948
 20
20.08410304884393
 30
0.0
 10
18.58754082455533
 20
20.1151890940993
 30
0.0
 10
18.88621937657005
 20
20.1151890940993
 30
0.0
 10
19.03510859283588
 20
20.08410304884393
 30
0.0
 10
19.23370586785902
 20
20.00092278800825
 30
0.0
 10
19.29495262076384
 20
19.96801995464779
 30
0.0
 10
19.41284550571791
 20
19.88966235845636
 30
0.0
 10
19.46937050176543
 20
19.84392589172716
 30
0.0
 10
19.62568424746748
 20
19.68903241054614
 30
0.0
 10
19.71143632531505
 20
19.56163205909398
 30
0.0
 10
19.82443478104006
 20
19.28659575310954
 30
0.0
 10
19.85156363181267
 20
19.13984100425555
 30
0.0
 10
19.85156363181267
 20
18.86117012144305
 30
0.0
 10
19.82443478104007
 20
18.71441537258907
 30
0.0
 10
19.71143632531504
 20
18.43937906660462
 30
0.0
 10
19.62568424746749
 20
18.31197871515247
 30
0.0
 10
19.46937050176544
 20
18.15708523397146
 30
0.0
 10
19.41284550571791
 20
18.11134876724225
 30
0.0
 10
19.29495262076384
 20
18.03299117105081
 30
0.0
 10
19.23370586785901
 20
18.00008833769036
 30
0.0
 10
19.03510859283588
 20
17.91690807685467
 30
0.0
 10
18.88621937657003
 20
17.88582203159931
 30
0.0
 10
18.58754082455532
 20
17.88582203159931
 30
0.0
 10
18.43865160828948
 20
17.91690807685468
 30
0.0
 10
18.24005433326633
 20
18.00008833769035
 30
0.0
 10
18.17880758036152
 20
18.03299117105081
 30
0.0
 10
18.06091469540744
 20
18.11134876724225
 30
0.0
 10
18.00438969935992
 20
18.15708523397146
 30
0.0
 10
17.84807595365788
 20
18.31197871515248
 30
0.0
 10
17.76232387581032
 20
18.43937906660462
 30
0.0
 10
17.64932542008529
 20
18.71441537258907
 30
0.0
 10
17.62219656931268
 20
18.86117012144305
 30
0.0
 10
17.62219656931269
 20
19.0005055628493
 30
0.0
  0
SPLINE
  5
89
330
1F
100
AcDbEntity
  8
0
  6
Continuous
 62
     7
370
    25
100
AcDbSpline
210
0.0
220
0.0
230
1.0
 70
    11
 71
     3
 72
    46
 73
    42
 74
     0
 42
0.00000001
 43
0.00000001
 40
0.0
 40
0.0
 40
0.0
 40
0.0
 40
0.0625000000000018
 40
0.0625000000000018
 40
0.1250000000000037
 40
0.1250000000000037
 40
0.1562500000000046
 40
0.1562500000000046
 40
0.1875000000000056
 40
0.1875000000000056
 40
0.2500000000000054
 40
0.2500000000000054
 40
0.3125000000000052
 40
0.3125000000000052
 40
0.3437500000000044
 40
0.3437500000000044
 40
0.3750000000000036
 40
0.3750000000000036
 40
0.4375000000000031
 40
0.4375000000000031
 40
0.5000000000000024
 40
0.5000000000000024
 40
0.5625000000000019
 40
0.5625000000000019
 40
0.6250000000000014
 40
0.6250000000000014
 40
0.6562500000000007
 40
0.6562500000000007
 40
0.6874999999999999
 40
0.6874999999999999
 40
0.7499999999999991
 40
0.7499999999999991
 40
0.8124999999999982
 40
0.8124999999999982
 40
0.8437499999999986
 40
0.8437499999999986
 40
0.8749999999999988
 40
0.8749999999999988
 40
0.9374999999999993
 40
0.9374999999999993
 40
1.0
 40
1.0
 40
1.0
 40
1.0
 10
-20.28857679607288
 20
-19.49452835173626
 30
0.0
 10
-20.28857679607288
 20
-19.35519291033001
 30
0.0
 10
-20.26144794530028
 20
-19.20843816147602
 30
0.0
 10
-20.14844948957524
 20
-18.93340185549158
 30
0.0
 10
-20.06269741172769
 20
-18.80600150403942
 30
0.0
 10
-19.90638366602564
 20
-18.6511080228584
 30
0.0
 10
-19.84985866997811
 20
-18.6053715561292
 30
0.0
 10
-19.73196578502404
 20
-18.52701395993776
 30
0.0
 10
-19.67071903211922
 20
-18.4941111265773
 30
0.0
 10
-19.47212175709609
 20
-18.41093086574163
 30
0.0
 10
-19.32323254083024
 20
-18.37984482048626
 30
0.0
 10
-19.02455398881553
 20
-18.37984482048626
 30
0.0
 10
-18.87566477254968
 20
-18.41093086574162
 30
0.0
 10
-18.67706749752655
 20
-18.49411112657731
 30
0.0
 10
-18.61582074462172
 20
-18.52701395993776
 30
0.0
 10
-18.49792785966765
 20
-18.60537155612921
 30
0.0
 10
-18.44140286362012
 20
-18.65110802285841
 30
0.0
 10
-18.28508911791807
 20
-18.80600150403943
 30
0.0
 10
-18.19933704007052
 20
-18.93340185549157
 30
0.0
 10
-18.08633858434548
 20
-19.20843816147601
 30
0.0
 10
-18.05920973357288
 20
-19.35519291033001
 30
0.0
 10
-18.05920973357289
 20
-19.63386379314251
 30
0.0
 10
-18.0863385843455
 20
-19.78061854199651
 30
0.0
 10
-18.19933704007051
 20
-20.05565484798095
 30
0.0
 10
-18.28508911791807
 20
-20.1830551994331
 30
0.0
 10
-18.44140286362013
 20
-20.33794868061413
 30
0.0
 10
-18.49792785966766
 20
-20.38368514734333
 30
0.0
 10
-18.61582074462172
 20
-20.46204274353476
 30
0.0
 10
-18.67706749752656
 20
-20.49494557689522
 30
0.0
 10
-18.87566477254968
 20
-20.57812583773089
 30
0.0
 10
-19.02455398881554
 20
-20.60921188298627
 30
0.0
 10
-19.32323254083025
 20
-20.60921188298627
 30
0.0
 10
-19.47212175709609
 20
-20.57812583773089
 30
0.0
 10
-19.67071903211922
 20
-20.49494557689521
 30
0.0
 10
-19.73196578502405
 20
-20.46204274353476
 30
0.0
 10
-19.84985866997812
 20
-20.38368514734332
 30
0.0
 10
-19.90638366602565
 20
-20.33794868061413
 30
0.0
 10
-20.0626974117277
 20
-20.1830551994331
 30
0.0
 10
-20.14844948957525
 20
-20.05565484798094
 30
0.0
 10
-20.26144794530028
 20
-19.78061854199649
 30
0.0
 10
-20.28857679607288
 20
-19.63386379314251
 30
0.0
 10
-20.28857679607288
 20
-19.49452835173626
 30
0.0
  0
SPLINE
  5
8B
330
1F
100
AcDbEntity
  8
0
  6
Continuous
 62
     7
370
    25
100
AcDbSpline
210
0.0
220
0.0
230
1.0
 70
    11
 71
     3
 72
    46
 73
    42
 74
     0
 42
0.00000001
 43
0.00000001
 40
0.0
 40
0.0
 40
0.0
 40
0.0
 40
0.0624999999999982
 40
0.0624999999999982
 40
0.1249999999999965
 40
0.1249999999999965
 40
0.1562499999999956
 40
0.1562499999999956
 40
0.1874999999999948
 40
0.1874999999999948
 40
0.2499999999999938
 40
0.2499999999999938
 40
0.3124999999999928
 40
0.3124999999999928
 40
0.3437499999999923
 40
0.3437499999999923
 40
0.3749999999999918
 40
0.3749999999999918
 40
0.4374999999999919
 40
0.4374999999999919
 40
0.4999999999999919
 40
0.4999999999999919
 40
0.5624999999999919
 40
0.5624999999999919
 40
0.6249999999999919
 40
0.6249999999999919
 40
0.6562499999999915
 40
0.6562499999999915
 40
0.687499999999991
 40
0.687499999999991
 40
0.7499999999999908
 40
0.7499999999999908
 40
0.8124999999999907
 40
0.8124999999999907
 40
0.8437499999999916
 40
0.8437499999999916
 40
0.8749999999999925
 40
0.8749999999999925
 40
0.9374999999999962
 40
0.9374999999999962
 40
1.0
 40
1.0
 40
1.0
 40
1.0
 10
17.69721630888166
 20
-19.48462083603445
 30
0.0
 10
17.69721630888166
 20
-19.34528539462821
 30
0.0
 10
17.72434515965427
 20
-19.19853064577422
 30
0.0
 10
17.83734361537929
 20
-18.92349433978977
 30
0.0
 10
17.92309569322685
 20
-18.79609398833761
 30
0.0
 10
18.0794094389289
 20
-18.6412005071566
 30
0.0
 10
18.13593443497643
 20
-18.5954640404274
 30
0.0
 10
18.25382731993049
 20
-18.51710644423596
 30
0.0
 10
18.31507407283532
 20
-18.4842036108755
 30
0.0
 10
18.51367134785845
 20
-18.40102335003983
 30
0.0
 10
18.6625605641243
 20
-18.36993730478446
 30
0.0
 10
18.96123911613901
 20
-18.36993730478445
 30
0.0
 10
19.11012833240486
 20
-18.40102335003983
 30
0.0
 10
19.30872560742799
 20
-18.4842036108755
 30
0.0
 10
19.36997236033281
 20
-18.51710644423596
 30
0.0
 10
19.48786524528688
 20
-18.5954640404274
 30
0.0
 10
19.54439024133441
 20
-18.6412005071566
 30
0.0
 10
19.70070398703646
 20
-18.79609398833761
 30
0.0
 10
19.78645606488401
 20
-18.92349433978977
 30
0.0
 10
19.89945452060904
 20
-19.19853064577422
 30
0.0
 10
19.92658337138165
 20
-19.34528539462821
 30
0.0
 10
19.92658337138165
 20
-19.6239562774407
 30
0.0
 10
19.89945452060904
 20
-19.77071102629469
 30
0.0
 10
19.78645606488402
 20
-20.04574733227914
 30
0.0
 10
19.70070398703645
 20
-20.1731476837313
 30
0.0
 10
19.54439024133441
 20
-20.32804116491231
 30
0.0
 10
19.48786524528688
 20
-20.37377763164151
 30
0.0
 10
19.36997236033281
 20
-20.45213522783294
 30
0.0
 10
19.30872560742799
 20
-20.4850380611934
 30
0.0
 10
19.11012833240486
 20
-20.56821832202908
 30
0.0
 10
18.96123911613901
 20
-20.59930436728445
 30
0.0
 10
18.66256056412429
 20
-20.59930436728444
 30
0.0
 10
18.51367134785844
 20
-20.56821832202907
 30
0.0
 10
18.31507407283531
 20
-20.4850380611934
 30
0.0
 10
18.25382731993048
 20
-20.45213522783294
 30
0.0
 10
18.13593443497642
 20
-20.3737776316415
 30
0.0
 10
18.0794094389289
 20
-20.3280411649123
 30
0.0
 10
17.92309569322685
 20
-20.17314768373129
 30
0.0
 10
17.83734361537929
 20
-20.04574733227913
 30
0.0
 10
17.72434515965426
 20
-19.77071102629468
 30
0.0
 10
17.69721630888166
 20
-19.6239562774407
 30
0.0
 10
17.69721630888166
 20
-19.48462083603445
 30
0.0
  0
SPLINE
  5
94
330
1F
100
AcDbEntity
  8
0
  6
Continuous
 62
     7
370
    25
100
AcDbSpline
210
0.0
220
0.0
230
1.0
 70
     8
 71
     3
 72
    16
 73
    12
 74
     0
 42
0.00000001
 43
0.00000001
 40
0.0
 40
0.0
 40
0.0
 40
0.0
 40
0.2500000000000014
 40
0.2500000000000014
 40
0.5000000000000028
 40
0.5000000000000028
 40
0.6250000000000019
 40
0.6250000000000019
 40
0.750000000000001
 40
0.750000000000001
 40
1.0
 40
1.0
 40
1.0
 40
1.0
 10
-9.887975605336907
 20
15.04087558715459
 30
0.0
 10
-9.936064098860145
 20
14.85506873181352
 30
0.0
 10
-10.01768320725329
 20
14.67331114334547
 30
0.0
 10
-10.23701979013106
 20
14.3503041433596
 30
0.0
 10
-10.37429973833354
 20
14.20953566816621
 30
0.0
 10
-10.60045107676722
 20
14.04283548310446
 30
0.0
 10
-10.67792648684451
 20
13.99504888904924
 30
0.0
 10
-10.84246306290221
 20
13.91097070187933
 30
0.0
 10
-10.9298202943176
 20
13.87484277759711
 30
0.0
 10
-11.20286021608494
 20
13.78843561307563
 30
0.0
 10
-11.39972536157707
 20
13.76087890104017
 30
0.0
 10
-11.59501386314722
 20
13.76792117617705
 30
0.0
  0
SPLINE
  5
95
330
1F
100
AcDbEntity
  8
0
  6
Continuous
 62
     7
370
    25
100
AcDbSpline
210
0.0
220
0.0
230
1.0
 70
    11
 71
     3
 72
    46
 73
    42
 74
     0
 42
0.00000001
 43
0.00000001
 40
0.0
 40
0.0
 40
0.0
 40
0.0
 40
0.062499999999999
 40
0.062499999999999
 40
0.1249999999999979
 40
0.1249999999999979
 40
0.1562499999999978
 40
0.1562499999999978
 40
0.1874999999999976
 40
0.1874999999999976
 40
0.2499999999999978
 40
0.2499999999999978
 40
0.3124999999999981
 40
0.3124999999999981
 40
0.3437499999999982
 40
0.3437499999999982
 40
0.3749999999999983
 40
0.3749999999999983
 40
0.4374999999999979
 40
0.4374999999999979
 40
0.4999999999999974
 40
0.4999999999999974
 40
0.562499999999997
 40
0.562499999999997
 40
0.6249999999999964
 40
0.6249999999999964
 40
0.6562499999999967
 40
0.6562499999999967
 40
0.6874999999999968
 40
0.6874999999999968
 40
0.7499999999999976
 40
0.7499999999999976
 40
0.8124999999999984
 40
0.8124999999999984
 40
0.8437499999999988
 40
0.8437499999999988
 40
0.8749999999999992
 40
0.8749999999999992
 40
0.9374999999999996
 40
0.9374999999999996
 40
1.0
 40
1.0
 40
1.0
 40
1.0
 10
-13.09843371942826
 20
15.46681692404661
 30
0.0
 10
-13.09843371942826
 20
15.66240236545286
 30
0.0
 10
-13.06035289663361
 20
15.86840230375559
 30
0.0
 10
-12.90173673538886
 20
16.25447132371062
 30
0.0
 10
-12.78136636997395
 20
16.43330345516689
 30
0.0
 10
-12.56194844842834
 20
16.65072774852677
 30
0.0
 10
-12.48260419695244
 20
16.71492811954015
 30
0.0
 10
-12.31711771548238
 20
16.82491883607256
 30
0.0
 10
-12.23114552433925
 20
16.8711046099243
 30
0.0
 10
-11.95237412701597
 20
16.98786491058894
 30
0.0
 10
-11.74337803248261
 20
17.03150045529661
 30
0.0
 10
-11.3241223438739
 20
17.03150045529661
 30
0.0
 10
-11.11512624934055
 20
16.98786491058894
 30
0.0
 10
-10.83635485201726
 20
16.87110460992431
 30
0.0
 10
-10.75038266087413
 20
16.82491883607256
 30
0.0
 10
-10.58489617940407
 20
16.71492811954014
 30
0.0
 10
-10.50555192792818
 20
16.65072774852677
 30
0.0
 10
-10.28613400638257
 20
16.43330345516689
 30
0.0
 10
-10.16576364096766
 20
16.25447132371061
 30
0.0
 10
-10.0071474797229
 20
15.86840230375558
 30
0.0
 10
-9.969066656928264
 20
15.66240236545286
 30
0.0
 10
-9.969066656928259
 20
15.27123148264036
 30
0.0
 10
-10.00714747972291
 20
15.06523154433763
 30
0.0
 10
-10.16576364096767
 20
14.67916252438261
 30
0.0
 10
-10.28613400638257
 20
14.50033039292633
 30
0.0
 10
-10.50555192792819
 20
14.28290609956646
 30
0.0
 10
-10.58489617940409
 20
14.21870572855308
 30
0.0
 10
-10.75038266087414
 20
14.10871501202065
 30
0.0
 10
-10.83635485201727
 20
14.06252923816892
 30
0.0
 10
-11.11512624934056
 20
13.94576893750429
 30
0.0
 10
-11.32412234387392
 20
13.90213339279662
 30
0.0
 10
-11.74337803248262
 20
13.90213339279662
 30
0.0
 10
-11.95237412701598
 20
13.94576893750429
 30
0.0
 10
-12.23114552433926
 20
14.06252923816892
 30
0.0
 10
-12.31711771548239
 20
14.10871501202067
 30
0.0
 10
-12.48260419695245
 20
14.21870572855308
 30
0.0
 10
-12.56194844842834
 20
14.28290609956646
 30
0.0
 10
-12.78136636997396
 20
14.50033039292633
 30
0.0
 10
-12.90173673538886
 20
14.67916252438262
 30
0.0
 10
-13.06035289663362
 20
15.06523154433765
 30
0.0
 10
-13.09843371942826
 20
15.27123148264037
 30
0.0
 10
-13.09843371942826
 20
15.46681692404661
 30
0.0
  0
SPLINE
  5
97
330
1F
100
AcDbEntity
  8
0
  6
Continuous
 62
     7
370
    25
100
AcDbSpline
210
0.0
220
0.0
230
1.0
 70
     8
 71
     3
 72
    10
 73
     6
 74
     0
 42
0.00000001
 43
0.00000001
 40
0.0
 40
0.0
 40
0.0
 40
0.0
 40
0.5
 40
0.5
 40
1.0
 40
1.0
 40
1.0
 40
1.0
 10
10.10192715120171
 20
13.73298789200565
 30
0.0
 10
10.10192715120171
 20
13.89478802168077
 30
0.0
 10
10.12551393694238
 20
14.0630380073598
 30
0.0
 10
10.22495061701634
 20
14.39058910415271
 30
0.0
 10
10.30085371087337
 20
14.54954462704764
 30
0.0
 10
10.39859086663396
 20
14.69249155141273
 30
0.0
  0
SPLINE
  5
98
330
1F
100
AcDbEntity
  8
0
  6
Continuous
 62
     7
370
    25
100
AcDbSpline
210
0.0
220
0.0
230
1.0
 70
     8
 71
     3
 72
    24
 73
    20
 74
     0
 42
0.00000001
 43
0.00000001
 40
0.0
 40
0.0
 40
0.0
 40
0.0
 40
0.0625
 40
0.0625
 40
0.125
 40
0.125
 40
0.25
 40
0.25
 40
0.3749999999999999
 40
0.3749999999999999
 40
0.4999999999999999
 40
0.4999999999999999
 40
0.6249999999999999
 40
0.6249999999999999
 40
0.7499999999999999
 40
0.7499999999999999
 40
0.875
 40
0.875
 40
1.0
 40
1.0
 40
1.0
 40
1.0
 10
12.96156408504166
 20
12.48991018660093
 30
0.0
 10
12.90125307261573
 20
12.43364751112835
 30
0.0
 10
12.83749784760535
 20
12.38241715361174
 30
0.0
 10
12.70558297740977
 20
12.29081795249921
 30
0.0
 10
12.63828941865579
 20
12.25080451878905
 30
0.0
 10
12.42448226685397
 20
12.14304993566335
 30
0.0
 10
12.26666363576946
 20
12.08920736448391
 30
0.0
 10
11.9372863688961
 20
12.03014547271571
 30
0.0
 10
11.76599553983736
 20
12.02508116185626
 30
0.0
 10
11.43232045220766
 20
12.06516674822448
 30
0.0
 10
11.2702301026951
 20
12.11020818243828
 30
0.0
 10
10.97399053731894
 20
12.23945627179584
 30
0.0
 10
10.84018348423395
 20
12.3216906096131
 30
0.0
 10
10.58892487263873
 20
12.53076645963881
 30
0.0
 10
10.47537203258125
 20
12.65658614396791
 30
0.0
 10
10.28988689976652
 20
12.93792595482299
 30
0.0
 10
10.21815772844875
 20
13.09320437680508
 30
0.0
 10
10.12420474838546
 20
13.41221371932632
 30
0.0
 10
10.10192715120171
 20
13.57564548555927
 30
0.0
 10
10.10192715120171
 20
13.73298789200565
 30
0.0
  0
SPLINE
  5
99
330
1F
100
AcDbEntity
  8
0
  6
Continuous
 62
     7
370
    25
100
AcDbSpline
210
0.0
220
0.0
230
1.0
 70
    11
 71
     3
 72
    46
 73
    42
 74
     0
 42
0.00000001
 43
0.00000001
 40
0.0
 40
0.0
 40
0.0
 40
0.0
 40
0.0624999999999998
 40
0.0624999999999998
 40
0.1249999999999997
 40
0.1249999999999997
 40
0.1562499999999998
 40
0.1562499999999998
 40
0.1874999999999999
 40
0.1874999999999999
 40
0.2500000000000002
 40
0.2500000000000002
 40
0.3125000000000004
 40
0.3125000000000004
 40
0.3437500000000003
 40
0.3437500000000003
 40
0.3750000000000001
 40
0.3750000000000001
 40
0.4374999999999999
 40
0.4374999999999999
 40
0.4999999999999997
 40
0.4999999999999997
 40
0.5624999999999994
 40
0.5624999999999994
 40
0.6249999999999991
 40
0.6249999999999991
 40
0.6562499999999994
 40
0.6562499999999994
 40
0.6874999999999997
 40
0.6874999999999997
 40
0.7499999999999997
 40
0.7499999999999997
 40
0.8124999999999998
 40
0.8124999999999998
 40
0.8437499999999998
 40
0.8437499999999998
 40
0.8749999999999999
 40
0.8749999999999999
 40
0.9374999999999999
 40
0.9374999999999999
 40
1.0
 40
1.0
 40
1.0
 40
1.0
 10
10.23724361995171
 20
13.73298789200565
 30
0.0
 10
10.23724361995171
 20
13.9285733334119
 30
0.0
 10
10.27532444274635
 20
14.13457327171462
 30
0.0
 10
10.43394060399111
 20
14.52064229166965
 30
0.0
 10
10.55431096940602
 20
14.69947442312593
 30
0.0
 10
10.77372889095163
 20
14.9168987164858
 30
0.0
 10
10.85307314242753
 20
14.98109908749917
 30
0.0
 10
11.01855962389759
 20
15.0910898040316
 30
0.0
 10
11.10453181504071
 20
15.13727557788334
 30
0.0
 10
11.383303212364
 20
15.25403587854797
 30
0.0
 10
11.59229930689736
 20
15.29767142325564
 30
0.0
 10
12.01155499550607
 20
15.29767142325564
 30
0.0
 10
12.22055109003941
 20
15.25403587854797
 30
0.0
 10
12.49932248736271
 20
15.13727557788333
 30
0.0
 10
12.58529467850584
 20
15.09108980403159
 30
0.0
 10
12.75078115997589
 20
14.98109908749917
 30
0.0
 10
12.83012541145179
 20
14.91689871648579
 30
0.0
 10
13.0495433329974
 20
14.69947442312593
 30
0.0
 10
13.1699136984123
 20
14.52064229166965
 30
0.0
 10
13.32852985965706
 20
14.13457327171461
 30
0.0
 10
13.3666106824517
 20
13.9285733334119
 30
0.0
 10
13.36661068245171
 20
13.53740245059941
 30
0.0
 10
13.32852985965706
 20
13.33140251229667
 30
0.0
 10
13.1699136984123
 20
12.94533349234164
 30
0.0
 10
13.04954333299739
 20
12.76650136088536
 30
0.0
 10
12.83012541145178
 20
12.54907706752549
 30
0.0
 10
12.75078115997589
 20
12.48487669651212
 30
0.0
 10
12.58529467850583
 20
12.3748859799797
 30
0.0
 10
12.4993224873627
 20
12.32870020612796
 30
0.0
 10
12.22055109003941
 20
12.21193990546332
 30
0.0
 10
12.01155499550606
 20
12.16830436075565
 30
0.0
 10
11.59229930689735
 20
12.16830436075565
 30
0.0
 10
11.38330321236399
 20
12.21193990546332
 30
0.0
 10
11.1045318150407
 20
12.32870020612796
 30
0.0
 10
11.01855962389757
 20
12.3748859799797
 30
0.0
 10
10.85307314242752
 20
12.48487669651212
 30
0.0
 10
10.77372889095163
 20
12.5490770675255
 30
0.0
 10
10.55431096940601
 20
12.76650136088537
 30
0.0
 10
10.43394060399111
 20
12.94533349234165
 30
0.0
 10
10.27532444274635
 20
13.33140251229668
 30
0.0
 10
10.23724361995171
 20
13.5374024505994
 30
0.0
 10
10.23724361995171
 20
13.73298789200565
 30
0.0
  0
SPLINE
  5
A2
330
1F
100
AcDbEntity
  8
0
  6
Continuous
 62
     7
370
    25
100
AcDbSpline
210
0.0
220
0.0
230
1.0
 70
     8
 71
     3
 72
    18
 73
    14
 74
     0
 42
0.00000001
 43
0.00000001
 40
0.0
 40
0.0
 40
0.0
 40
0.0
 40
0.2499999999999987
 40
0.2499999999999987
 40
0.3749999999999987
 40
0.3749999999999987
 40
0.4999999999999987
 40
0.4999999999999987
 40
0.7499999999999997
 40
0.7499999999999997
 40
0.8749999999999998
 40
0.8749999999999998
 40
1.0
 40
1.0
 40
1.0
 40
1.0
 10
-12.18206782052152
 20
-13.25131026035592
 30
0.0
 10
-11.91862323581515
 20
-13.16507744896685
 30
0.0
 10
-11.62257520123211
 20
-13.14401705368685
 30
0.0
 10
-11.20671709632796
 20
-13.22059884374963
 30
0.0
 10
-11.07301698519102
 20
-13.26327824560128
 30
0.0
 10
-10.82587512821859
 20
-13.37567511118787
 30
0.0
 10
-10.71289142642963
 20
-13.44409388640126
 30
0.0
 10
-10.38935546682955
 20
-13.69747155695115
 30
0.0
 10
-10.20673669272483
 20
-13.92996390307425
 30
0.0
 10
-10.03746167101463
 20
-14.3197918262759
 30
0.0
 10
-9.997951433133386
 20
-14.45585896529799
 30
0.0
 10
-9.953391068134001
 20
-14.72732096888656
 30
0.0
 10
-9.947875645509685
 20
-14.85987693054971
 30
0.0
 10
-9.958018819042193
 20
-14.99459439930276
 30
0.0
  0
SPLINE
  5
A3
330
1F
100
AcDbEntity
  8
0
  6
Continuous
 62
     7
370
    25
100
AcDbSpline
210
0.0
220
0.0
230
1.0
 70
    11
 71
     3
 72
    46
 73
    42
 74
     0
 42
0.00000001
 43
0.00000001
 40
0.0
 40
0.0
 40
0.0
 40
0.0
 40
0.0625000000000004
 40
0.0625000000000004
 40
0.1250000000000009
 40
0.1250000000000009
 40
0.1562500000000011
 40
0.1562500000000011
 40
0.1875000000000013
 40
0.1875000000000013
 40
0.2500000000000012
 40
0.2500000000000012
 40
0.3125000000000012
 40
0.3125000000000012
 40
0.3437500000000009
 40
0.3437500000000009
 40
0.3750000000000006
 40
0.3750000000000006
 40
0.4375000000000001
 40
0.4375000000000001
 40
0.4999999999999996
 40
0.4999999999999996
 40
0.5624999999999991
 40
0.5624999999999991
 40
0.6249999999999986
 40
0.6249999999999986
 40
0.6562499999999989
 40
0.6562499999999989
 40
0.6874999999999992
 40
0.6874999999999992
 40
0.7499999999999992
 40
0.7499999999999992
 40
0.8124999999999993
 40
0.8124999999999993
 40
0.8437499999999992
 40
0.8437499999999992
 40
0.8749999999999991
 40
0.8749999999999991
 40
0.9374999999999996
 40
0.9374999999999996
 40
1.0
 40
1.0
 40
1.0
 40
1.0
 10
-13.21790416400314
 20
-14.86695893874782
 30
0.0
 10
-13.21790416400314
 20
-14.67137349734157
 30
0.0
 10
-13.1798233412085
 20
-14.46537355903884
 30
0.0
 10
-13.02120717996374
 20
-14.07930453908381
 30
0.0
 10
-12.90083681454884
 20
-13.90047240762753
 30
0.0
 10
-12.68141889300323
 20
-13.68304811426766
 30
0.0
 10
-12.60207464152733
 20
-13.61884774325429
 30
0.0
 10
-12.43658816005727
 20
-13.50885702672187
 30
0.0
 10
-12.35061596891414
 20
-13.46267125287012
 30
0.0
 10
-12.07184457159086
 20
-13.34591095220549
 30
0.0
 10
-11.86284847705751
 20
-13.30227540749782
 30
0.0
 10
-11.44359278844879
 20
-13.30227540749782
 30
0.0
 10
-11.23459669391544
 20
-13.34591095220549
 30
0.0
 10
-10.95582529659215
 20
-13.46267125287013
 30
0.0
 10
-10.86985310544902
 20
-13.50885702672187
 30
0.0
 10
-10.70436662397896
 20
-13.61884774325429
 30
0.0
 10
-10.62502237250307
 20
-13.68304811426766
 30
0.0
 10
-10.40560445095745
 20
-13.90047240762753
 30
0.0
 10
-10.28523408554256
 20
-14.07930453908381
 30
0.0
 10
-10.12661792429779
 20
-14.46537355903884
 30
0.0
 10
-10.08853710150315
 20
-14.67137349734156
 30
0.0
 10
-10.08853710150315
 20
-15.06254438015406
 30
0.0
 10
-10.1266179242978
 20
-15.2685443184568
 30
0.0
 10
-10.28523408554256
 20
-15.65461333841183
 30
0.0
 10
-10.40560445095746
 20
-15.8334454698681
 30
0.0
 10
-10.62502237250308
 20
-16.05086976322798
 30
0.0
 10
-10.70436662397897
 20
-16.11507013424134
 30
0.0
 10
-10.86985310544902
 20
-16.22506085077377
 30
0.0
 10
-10.95582529659215
 20
-16.27124662462551
 30
0.0
 10
-11.23459669391545
 20
-16.38800692529015
 30
0.0
 10
-11.4435927884488
 20
-16.43164246999781
 30
0.0
 10
-11.86284847705752
 20
-16.43164246999781
 30
0.0
 10
-12.07184457159086
 20
-16.38800692529014
 30
0.0
 10
-12.35061596891415
 20
-16.2712466246255
 30
0.0
 10
-12.43658816005728
 20
-16.22506085077377
 30
0.0
 10
-12.60207464152734
 20
-16.11507013424135
 30
0.0
 10
-12.68141889300323
 20
-16.05086976322797
 30
0.0
 10
-12.90083681454884
 20
-15.83344546986809
 30
0.0
 10
-13.02120717996374
 20
-15.65461333841181
 30
0.0
 10
-13.17982334120851
 20
-15.26854431845678
 30
0.0
 10
-13.21790416400315
 20
-15.06254438015407
 30
0.0
 10
-13.21790416400314
 20
-14.86695893874782
 30
0.0
  0
SPLINE
  5
A5
330
1F
100
AcDbEntity
  8
0
  6
Continuous
 62
     7
370
    25
100
AcDbSpline
210
0.0
220
0.0
230
1.0
 70
     8
 71
     3
 72
     8
 73
     4
 74
     0
 42
0.00000001
 43
0.00000001
 40
0.0
 40
0.0
 40
0.0
 40
0.0
 40
1.0
 40
1.0
 40
1.0
 40
1.0
 10
10.04811637121541
 20
-14.93436832914312
 30
0.0
 10
10.04722065057439
 20
-14.91179688177131
 30
0.0
 10
10.04677936724685
 20
-14.88931874314549
 30
0.0
 10
10.04677936724685
 20
-14.86695893874782
 30
0.0
  0
SPLINE
  5
A6
330
1F
100
AcDbEntity
  8
0
  6
Continuous
 62
     7
370
    25
100
AcDbSpline
210
0.0
220
0.0
230
1.0
 70
    11
 71
     3
 72
    46
 73
    42
 74
     0
 42
0.00000001
 43
0.00000001
 40
0.0
 40
0.0
 40
0.0
 40
0.0
 40
0.062499999999999
 40
0.062499999999999
 40
0.124999999999998
 40
0.124999999999998
 40
0.1562499999999977
 40
0.1562499999999977
 40
0.1874999999999974
 40
0.1874999999999974
 40
0.2499999999999973
 40
0.2499999999999973
 40
0.3124999999999972
 40
0.3124999999999972
 40
0.3437499999999973
 40
0.3437499999999973
 40
0.3749999999999974
 40
0.3749999999999974
 40
0.437499999999997
 40
0.437499999999997
 40
0.4999999999999964
 40
0.4999999999999964
 40
0.5624999999999959
 40
0.5624999999999959
 40
0.6249999999999959
 40
0.6249999999999959
 40
0.6562499999999961
 40
0.6562499999999961
 40
0.6874999999999962
 40
0.6874999999999962
 40
0.7499999999999971
 40
0.7499999999999971
 40
0.8124999999999981
 40
0.8124999999999981
 40
0.8437499999999982
 40
0.8437499999999982
 40
0.8749999999999984
 40
0.8749999999999984
 40
0.9374999999999992
 40
0.9374999999999992
 40
1.0
 40
1.0
 40
1.0
 40
1.0
 10
10.18209583599685
 20
-14.86695893874782
 30
0.0
 10
10.18209583599686
 20
-14.67137349734157
 30
0.0
 10
10.22017665879149
 20
-14.46537355903884
 30
0.0
 10
10.37879282003625
 20
-14.07930453908381
 30
0.0
 10
10.49916318545116
 20
-13.90047240762753
 30
0.0
 10
10.71858110699677
 20
-13.68304811426766
 30
0.0
 10
10.79792535847267
 20
-13.61884774325429
 30
0.0
 10
10.96341183994273
 20
-13.50885702672187
 30
0.0
 10
11.04938403108585
 20
-13.46267125287012
 30
0.0
 10
11.32815542840915
 20
-13.34591095220549
 30
0.0
 10
11.5371515229425
 20
-13.30227540749782
 30
0.0
 10
11.95640721155121
 20
-13.30227540749782
 30
0.0
 10
12.16540330608456
 20
-13.34591095220549
 30
0.0
 10
12.44417470340785
 20
-13.46267125287013
 30
0.0
 10
12.53014689455098
 20
-13.50885702672187
 30
0.0
 10
12.69563337602103
 20
-13.61884774325429
 30
0.0
 10
12.77497762749692
 20
-13.68304811426767
 30
0.0
 10
12.99439554904254
 20
-13.90047240762753
 30
0.0
 10
13.11476591445744
 20
-14.07930453908381
 30
0.0
 10
13.2733820757022
 20
-14.46537355903885
 30
0.0
 10
13.31146289849685
 20
-14.67137349734157
 30
0.0
 10
13.31146289849685
 20
-15.06254438015407
 30
0.0
 10
13.27338207570221
 20
-15.2685443184568
 30
0.0
 10
13.11476591445744
 20
-15.65461333841183
 30
0.0
 10
12.99439554904254
 20
-15.8334454698681
 30
0.0
 10
12.77497762749693
 20
-16.05086976322798
 30
0.0
 10
12.69563337602103
 20
-16.11507013424135
 30
0.0
 10
12.53014689455097
 20
-16.22506085077377
 30
0.0
 10
12.44417470340784
 20
-16.2712466246255
 30
0.0
 10
12.16540330608455
 20
-16.38800692529014
 30
0.0
 10
11.95640721155119
 20
-16.4316424699978
 30
0.0
 10
11.53715152294249
 20
-16.43164246999781
 30
0.0
 10
11.32815542840913
 20
-16.38800692529014
 30
0.0
 10
11.04938403108584
 20
-16.2712466246255
 30
0.0
 10
10.96341183994272
 20
-16.22506085077376
 30
0.0
 10
10.79792535847267
 20
-16.11507013424135
 30
0.0
 10
10.71858110699677
 20
-16.05086976322796
 30
0.0
 10
10.49916318545115
 20
-15.83344546986809
 30
0.0
 10
10.37879282003625
 20
-15.65461333841182
 30
0.0
 10
10.22017665879149
 20
-15.26854431845678
 30
0.0
 10
10.18209583599685
 20
-15.06254438015407
 30
0.0
 10
10.18209583599685
 20
-14.86695893874782
 30
0.0
  0
SPLINE
  5
A8
330
1F
100
AcDbEntity
  8
0
  6
Continuous
 62
     7
370
    25
100
AcDbSpline
210
0.0
220
0.0
230
1.0
 70
     8
 71
     3
 72
    16
 73
    12
 74
     0
 42
0.00000001
 43
0.00000001
 40
0.0
 40
0.0
 40
0.0
 40
0.0
 40
0.249999999999999
 40
0.249999999999999
 40
0.499999999999998
 40
0.499999999999998
 40
0.624999999999998
 40
0.624999999999998
 40
0.7499999999999981
 40
0.7499999999999981
 40
1.0
 40
1.0
 40
1.0
 40
1.0
 10
10.04677936724685
 20
-14.86695893874782
 30
0.0
 10
10.04677936724685
 20
-14.61813860255926
 30
0.0
 10
10.10436956059537
 20
-14.35367584169914
 30
0.0
 10
10.34011502840558
 20
-13.87586613354082
 30
0.0
 10
10.51730859463219
 20
-13.6652846906475
 30
0.0
 10
10.82383232258651
 20
-13.43358055270734
 30
0.0
 10
10.93027822376555
 20
-13.37044231982314
 30
0.0
 10
11.16248631084495
 20
-13.26544786096391
 30
0.0
 10
11.28745520335381
 20
-13.22486716023452
 30
0.0
 10
11.67615777444605
 20
-13.14800897524731
 30
0.0
 10
11.95321569354151
 20
-13.15936006007335
 30
0.0
 10
12.2052609130792
 20
-13.22995109755365
 30
0.0
  0
CIRCLE
  5
A9
330
1F
100
AcDbEntity
  8
0
  6
Continuous
 62
     7
370
    25
100
AcDbCircle
 10
-10.0492144888
 20
7.0657071417
 30
0.0
 40
0.8455737448298013
  0
CIRCLE
  5
AA
330
1F
100
AcDbEntity
  8
0
  6
Continuous
 62
     7
370
    25
100
AcDbCircle
 10
13.8934100362
 20
-4.8943290481
 30
0.0
 40
0.8455737448298013
  0
CIRCLE
  5
AB
330
1F
100
AcDbEntity
  8
0
  6
Continuous
 62
     7
370
    25
100
AcDbCircle
 10
0.9345987606
 20
12.4337641312
 30
0.0
 40
0.845573744829796
  0
CIRCLE
  5
AC
330
1F
100
AcDbEntity
  8
0
  6
Continuous
 62
     7
370
    25
100
AcDbCircle
 10
-6.8966905494
 20
12.4337641312
 30
0.0
 40
0.845573744829796
  0
CIRCLE
  5
AD
330
1F
100
AcDbEntity
  8
0
  6
Continuous
 62
     7
370
    25
100
AcDbCircle
 10
-2.4960470627
 20
-10.3840571398
 30
0.0
 40
0.8455737448297977
  0
CIRCLE
  5
AE
330
1F
100
AcDbEntity
  8
0
  6
Continuous
 62
     7
370
    25
100
AcDbCircle
 10
-10.0492144888
 20
-11.2395061086
 30
0.0
 40
0.8455737448297977
  0
CIRCLE
  5
AF
330
1F
100
AcDbEntity
  8
0
  6
Continuous
 62
     7
370
    25
100
AcDbCircle
 10
12.5102308471
 20
2.52220993
 30
0.0
 40
0.8455737448297995
  0
CIRCLE
  5
B0
330
1F
100
AcDbEntity
  8
0
  6
Continuous
 62
     7
370
    25
100
AcDbCircle
 10
-3.6043594883
 20
0.0
 30
0.0
 40
0.845573744829796
  0
CIRCLE
  5
B1
330
1F
100
AcDbEntity
  8
0
  6
Continuous
 62
     7
370
    25
100
AcDbCircle
 10
5.5237521512
 20
1.3463178812
 30
0.0
 40
0.8455737448297975
  0
CIRCLE
  5
B2
330
1F
100
AcDbEntity
  8
0
  6
Continuous
 62
     7
370
    25
100
AcDbCircle
 10
-13.4536993852
 20
-1.606303511
 30
0.0
 40
0.8455737448298011
  0
CIRCLE
  5
B3
330
1F
100
AcDbEntity
  8
0
  6
Continuous
 62
     7
370
    25
100
AcDbCircle
 10
5.5237521512
 20
9.6351999275
 30
0.0
 40
0.845573744829796
  0
CIRCLE
  5
B4
330
1F
100
AcDbEntity
  8
0
  6
Continuous
 62
     7
370
    25
100
AcDbCircle
 10
-3.6043594883
 20
8.1474294687
 30
0.0
 40
0.8455737448297969
  0
CIRCLE
  5
B5
330
1F
100
AcDbEntity
  8
0
  6
Continuous
 62
     7
370
    25
100
AcDbCircle
 10
8.3375596058
 20
-4.8943290481
 30
0.0
 40
0.8455737448298013
  0
CIRCLE
  5
B6
330
1F
100
AcDbEntity
  8
0
  6
Continuous
 62
     7
370
    25
100
AcDbCircle
 10
8.3375596058
 20
5.0235132496
 30
0.0
 40
0.8455737448298013
  0
CIRCLE
  5
B7
330
1F
100
AcDbEntity
  8
0
  6
Continuous
 62
     7
370
    25
100
AcDbCircle
 10
-7.7422642943
 20
-4.8943290481
 30
0.0
 40
0.8455737448297951
  0
CIRCLE
  5
B8
330
1F
100
AcDbEntity
  8
0
  6
Continuous
 62
     7
370
    25
100
AcDbCircle
 10
-8.9688149083
 20
2.52220993
 30
0.0
 40
0.8455737448297995
  0
CIRCLE
  5
B9
330
1F
100
AcDbEntity
  8
0
  6
Continuous
 62
     7
370
    25
100
AcDbCircle
 10
0.0
 20
5.0235132496
 30
0.0
 40
0.845573744829796
  0
CIRCLE
  5
BA
330
1F
100
AcDbEntity
  8
0
  6
Continuous
 62
     7
370
    25
100
AcDbCircle
 10
0.0
 20
-4.8943290481
 30
0.0
 40
0.845573744829796
  0
CIRCLE
  5
BB
330
1F
100
AcDbEntity
  8
0
  6
Continuous
 62
     7
370
    25
100
AcDbCircle
 10
12.5102308471
 20
-8.750769278
 30
0.0
 40
0.845573744829796
  0
CIRCLE
  5
BC
330
1F
100
AcDbEntity
  8
0
  6
Continuous
 62
     7
370
    25
100
AcDbCircle
 10
5.5237521512
 20
-9.6049173671
 30
0.0
 40
0.845573744829796
  0
LINE
  5
BD
330
1F
100
AcDbEntity
  8
0
  6
Continuous
 62
     7
370
    25
100
AcDbLine
 10
24.9334794694
 20
-14.8669589387
 30
0.0
 11
24.9334794694
 21
15.1330410613
 31
0.0
  0
LINE
  5
BE
330
1F
100
AcDbEntity
  8
0
  6
Continuous
 62
     7
370
    25
100
AcDbLine
 10
-14.6695100945
 20
-24.8669589387
 30
0.0
 11
14.9334794694
 21
-24.8669589387
 31
0.0
  0
LINE
  5
BF
330
1F
100
AcDbEntity
  8
0
  6
Continuous
 62
     7
370
    25
100
AcDbLine
 10
-24.6695100945
 20
15.1330410613
 30
0.0
 11
-24.6695100945
 21
-14.8669589387
 31
0.0
  0
LINE
  5
C0
330
1F
100
AcDbEntity
  8
0
  6
Continuous
 62
     7
370
    25
100
AcDbLine
 10
14.9334794694
 20
25.1330410613
 30
0.0
 11
-14.6695100945
 21
25.1330410613
 31
0.0
  0
LINE
  5
C1
330
1F
100
AcDbEntity
  8
0
  6
Continuous
 62
     7
370
    25
100
AcDbLine
 10
17.6221965693
 20
19.0005055628
 30
0.0
 11
17.4868801006
 21
19.0005055628
 31
0.0
  0
LINE
  5
C2
330
1F
100
AcDbEntity
  8
0
  6
Continuous
 62
     7
370
    25
100
AcDbLine
 10
-20.2885767961
 20
-19.4945283517
 30
0.0
 11
-20.4238932648
 21
-19.4945283517
 31
0.0
  0
LINE
  5
C3
330
1F
100
AcDbEntity
  8
0
  6
Continuous
 62
     7
370
    25
100
AcDbLine
 10
17.6972163089
 20
-19.484620836
 30
0.0
 11
17.5618998401
 21
-19.484620836
 31
0.0
  0
LINE
  5
C4
330
1F
100
AcDbEntity
  8
0
  6
Continuous
 62
     7
370
    25
100
AcDbLine
 10
-13.0984337194
 20
15.466816924
 30
0.0
 11
-13.2337501882
 21
15.466816924
 31
0.0
  0
LINE
  5
C5
330
1F
100
AcDbEntity
  8
0
  6
Continuous
 62
     7
370
    25
100
AcDbLine
 10
10.23724362
 20
13.732987892
 30
0.0
 11
10.1019271512
 21
13.732987892
 31
0.0
  0
LINE
  5
C6
330
1F
100
AcDbEntity
  8
0
  6
Continuous
 62
     7
370
    25
100
AcDbLine
 10
-13.217904164
 20
-14.8669589387
 30
0.0
 11
-13.3532206328
 21
-14.8669589387
 31
0.0
  0
LINE
  5
C7
330
1F
100
AcDbEntity
  8
0
  6
Continuous
 62
     7
370
    25
100
AcDbLine
 10
10.182095836
 20
-14.8669589387
 30
0.0
 11
10.0467793672
 21
-14.8669589387
 31
0.0
  0
ARC
  5
C8
330
1F
100
AcDbEntity
  8
0
  6
Continuous
 62
     7
370
    25
100
AcDbCircle
 10
0.0
 20
0.0
 30
0.0
 40
18.00000000000124
100
AcDbArc
 50
130.1032814108
 51
227.4073492796
  0
ARC
  5
C9
330
1F
100
AcDbEntity
  8
0
  6
Continuous
 62
     7
370
    25
100
AcDbCircle
 10
-11.6532206328
 20
-14.8669589387
 30
0.0
 40
4.500000000000004
100
AcDbArc
 50
123.7184868845
 51
340.1004375276
  0
ARC
  5
CA
330
1F
100
AcDbEntity
  8
0
  6
Continuous
 62
     7
370
    25
100
AcDbCircle
 10
0.0
 20
0.0
 30
0.0
 40
18.00000000000042
100
AcDbArc
 50
236.4115751326
 51
303.933387968
  0
ARC
  5
CB
330
1F
100
AcDbEntity
  8
0
  6
Continuous
 62
     7
370
    25
100
AcDbCircle
 10
11.7467793672
 20
-14.8669589387
 30
0.0
 40
4.500000000000005
100
AcDbArc
 50
199.4039526951
 51
57.2224487336
  0
ARC
  5
CC
330
1F
100
AcDbEntity
  8
0
  6
Continuous
 62
     7
370
    25
100
AcDbCircle
 10
0.0
 20
0.0
 30
0.0
 40
17.99999999999956
100
AcDbArc
 50
312.6930134607
 51
43.9383449991
  0
ARC
  5
CD
330
1F
100
AcDbEntity
  8
0
  6
Continuous
 62
     7
370
    25
100
AcDbCircle
 10
11.8019271512
 20
13.732987892
 30
0.0
 40
4.500000000000004
100
AcDbArc
 50
310.8096672184
 51
147.8397784372
  0
ARC
  5
CE
330
1F
100
AcDbEntity
  8
0
  6
Continuous
 62
     7
370
    25
100
AcDbCircle
 10
0.0
 20
0.0
 30
0.0
 40
17.99999999999963
100
AcDbArc
 50
54.7111006564
 51
123.3211959373
  0
ARC
  5
CF
330
1F
100
AcDbEntity
  8
0
  6
Continuous
 62
     7
370
    25
100
AcDbCircle
 10
-11.5337501882
 20
15.466816924
 30
0.0
 40
4.500000000000001
100
AcDbArc
 50
13.4784267698
 51
239.9460505783
  0
ARC
  5
D0
330
1F
100
AcDbEntity
  8
0
  6
Continuous
 62
     7
370
    25
100
AcDbCircle
 10
14.9334794694
 20
-14.8669589387
 30
0.0
 40
10.00000000000002
100
AcDbArc
 50
270.0
 51
0.0
  0
ARC
  5
D1
330
1F
100
AcDbEntity
  8
0
  6
Continuous
 62
     7
370
    25
100
AcDbCircle
 10
-14.6695100945
 20
-14.8669589387
 30
0.0
 40
10.00000000000001
100
AcDbArc
 50
180.0
 51
270.0
  0
ARC
  5
D2
330
1F
100
AcDbEntity
  8
0
  6
Continuous
 62
     7
370
    25
100
AcDbCircle
 10
-14.6695100945
 20
15.1330410613
 30
0.0
 40
10.00000000000001
100
AcDbArc
 50
90.0
 51
180.0
  0
ARC
  5
D3
330
1F
100
AcDbEntity
  8
0
  6
Continuous
 62
     7
370
    25
100
AcDbCircle
 10
14.9334794694
 20
15.1330410613
 30
0.0
 40
10.00000000000002
100
AcDbArc
 50
0.0
 51
90.0
  0
ARC
  5
D4
330
1F
100
AcDbEntity
  8
0
  6
Continuous
 62
     7
370
    25
100
AcDbCircle
 10
-11.5337501882
 20
15.466816924
 30
0.0
 40
1.700000000000001
100
AcDbArc
 50
345.489718659
 51
267.9347586891
  0
ARC
  5
D5
330
1F
100
AcDbEntity
  8
0
  6
Continuous
 62
     7
370
    25
100
AcDbCircle
 10
11.8019271512
 20
13.732987892
 30
0.0
 40
1.700000000000003
100
AcDbArc
 50
313.01104823
 51
145.6383974255
  0
ARC
  5
D6
330
1F
100
AcDbEntity
  8
0
  6
Continuous
 62
     7
370
    25
100
AcDbCircle
 10
11.7467793672
 20
-14.8669589387
 30
0.0
 40
1.700000000000005
100
AcDbArc
 50
182.272521419
 51
74.3538800096
  0
ARC
  5
D7
330
1F
100
AcDbEntity
  8
0
  6
Continuous
 62
     7
370
    25
100
AcDbCircle
 10
-11.6532206328
 20
-14.8669589387
 30
0.0
 40
1.700000000000005
100
AcDbArc
 50
108.1247251067
 51
355.6941993055
  0
ENDSEC
  0
SECTION
  2
OBJECTS
  0
DICTIONARY
  5
C
330
0
100
AcDbDictionary
281
     1
  3
ACAD_GROUP
350
D
  3
ACAD_LAYOUT
350
1A
  3
ACAD_MLINESTYLE
350
17
  3
ACAD_PLOTSETTINGS
350
19
  3
ACAD_PLOTSTYLENAME
350
E
  3
ACAD_SCALELIST
350
47
  3
DWGPROPS
350
D8
  0
DICTIONARY
  5
D
102
{ACAD_REACTORS
330
C
102
}
330
C
100
AcDbDictionary
281
     1
  0
DICTIONARY
  5
1A
102
{ACAD_REACTORS
330
C
102
}
330
C
100
AcDbDictionary
281
     1
  3
Layout1
350
1E
  3
Layout2
350
26
  3
Model
350
22
  0
DICTIONARY
  5
17
102
{ACAD_REACTORS
330
C
102
}
330
C
100
AcDbDictionary
281
     1
  3
Standard
350
18
  0
DICTIONARY
  5
19
102
{ACAD_REACTORS
330
C
102
}
330
C
100
AcDbDictionary
281
     1
  0
ACDBDICTIONARYWDFLT
  5
E
102
{ACAD_REACTORS
330
C
102
}
330
C
100
AcDbDictionary
281
     1
  3
Normal
350
F
100
AcDbDictionaryWithDefault
340
F
  0
DICTIONARY
  5
47
102
{ACAD_REACTORS
330
C
102
}
330
C
100
AcDbDictionary
281
     1
  3
A0
350
48
  3
A1
350
49
  3
A2
350
4A
  3
A3
350
4B
  3
A4
350
4C
  3
A5
350
4D
  3
A6
350
4E
  3
A7
350
4F
  3
A8
350
50
  3
A9
350
51
  3
B0
350
52
  3
B1
350
53
  3
B2
350
54
  3
B3
350
55
  3
B4
350
56
  3
B5
350
57
  3
B6
350
58
  3
B7
350
59
  3
B8
350
5A
  3
B9
350
5B
  3
C0
350
5C
  3
C1
350
5D
  3
C2
350
5E
  3
C3
350
5F
  3
C4
350
60
  3
C5
350
61
  3
C6
350
62
  3
C7
350
63
  3
C8
350
64
  3
C9
350
65
  3
D0
350
66
  3
D1
350
67
  3
D2
350
68
  0
XRECORD
  5
D8
102
{ACAD_REACTORS
330
C
102
}
330
C
100
AcDbXrecord
280
     1
  1
DWGPROPS COOKIE
  2

  3

  4

  6

  7

  8
kzhou
  9

300
=
301
=
302
=
303
=
304
=
305
=
306
=
307
=
308
=
309
=
 40
0.0
 41
2459768.094178125
 42
2459768.094220116
  1

 90
        0
  0
LAYOUT
  5
1E
102
{ACAD_REACTORS
330
1A
102
}
330
1A
100
AcDbPlotSettings
  1

  2
none_device
  4

  6

 40
0.0
 41
0.0
 42
0.0
 43
0.0
 44
0.0
 45
0.0
 46
0.0
 47
0.0
 48
0.0
 49
0.0
140
0.0
141
0.0
142
1.0
143
1.0
 70
   688
 72
     1
 73
     0
 74
     5
  7

 75
    16
147
1.0
148
0.0
149
0.0
100
AcDbLayout
  1
Layout1
 70
     1
 71
     1
 10
0.0
 20
0.0
 11
420.0
 21
297.0
 12
0.0
 22
0.0
 32
0.0
 14
1.0000000000E+20
 24
1.0000000000E+20
 34
1.0000000000E+20
 15
-1.0000000000E+20
 25
-1.0000000000E+20
 35
-1.0000000000E+20
146
0.0
 13
0.0
 23
0.0
 33
0.0
 16
1.0
 26
0.0
 36
0.0
 17
0.0
 27
1.0
 37
0.0
 76
     0
330
1B
  0
LAYOUT
  5
26
102
{ACAD_REACTORS
330
1A
102
}
330
1A
100
AcDbPlotSettings
  1

  2
none_device
  4

  6

 40
0.0
 41
0.0
 42
0.0
 43
0.0
 44
0.0
 45
0.0
 46
0.0
 47
0.0
 48
0.0
 49
0.0
140
0.0
141
0.0
142
1.0
143
1.0
 70
   688
 72
     1
 73
     0
 74
     5
  7

 75
    16
147
1.0
148
0.0
149
0.0
100
AcDbLayout
  1
Layout2
 70
     1
 71
     2
 10
0.0
 20
0.0
 11
0.0
 21
0.0
 12
0.0
 22
0.0
 32
0.0
 14
0.0
 24
0.0
 34
0.0
 15
0.0
 25
0.0
 35
0.0
146
0.0
 13
0.0
 23
0.0
 33
0.0
 16
1.0
 26
0.0
 36
0.0
 17
0.0
 27
1.0
 37
0.0
 76
     0
330
23
  0
LAYOUT
  5
22
102
{ACAD_REACTORS
330
1A
102
}
330
1A
100
AcDbPlotSettings
  1

  2
none_device
  4
ANSI_A_(11.00_x_8.50_Inches)
  6

 40
6.35
 41
19.05
 42
6.35000508
 43
19.05000254
 44
279.4
 45
215.9
 46
132.7857866784
 47
88.3312721405
 48
0.0
 49
0.0
140
0.0
141
0.0
142
0.1683
143
1.0
 70
  1696
 72
     0
 73
     0
 74
     0
  7

 75
     0
147
0.0179189148
148
-1300.4909072572
149
0.0
100
AcDbLayout
  1
Model
 70
     1
 71
     0
 10
0.0
 20
0.0
 11
420.0
 21
297.0
 12
0.0
 22
0.0
 32
0.0
 14
-24.6695100945
 24
-24.8669589387
 34
0.0
 15
24.9334794694
 25
25.1330410613
 35
0.0
146
0.0
 13
0.0
 23
0.0
 33
0.0
 16
1.0
 26
0.0
 36
0.0
 17
0.0
 27
1.0
 37
0.0
 76
     0
330
1F
331
29
  0
MLINESTYLE
  5
18
102
{ACAD_REACTORS
330
17
102
}
330
17
100
AcDbMlineStyle
  2
Standard
 70
     0
  3

 62
   256
 51
90.0
 52
90.0
 71
     2
 49
0.5
 62
   256
  6
BYLAYER
 49
-0.5
 62
   256
  6
BYLAYER
  0
ACDBPLACEHOLDER
  5
F
102
{ACAD_REACTORS
330
E
102
}
330
E
  0
SCALE
  5
48
102
{ACAD_REACTORS
330
47
102
}
330
47
100
AcDbScale
 70
     0
300
1:1
140
1.0
141
1.0
290
     1
  0
SCALE
  5
49
102
{ACAD_REACTORS
330
47
102
}
330
47
100
AcDbScale
 70
     0
300
1:2
140
1.0
141
2.0
290
     0
  0
SCALE
  5
4A
102
{ACAD_REACTORS
330
47
102
}
330
47
100
AcDbScale
 70
     0
300
1:4
140
1.0
141
4.0
290
     0
  0
SCALE
  5
4B
102
{ACAD_REACTORS
330
47
102
}
330
47
100
AcDbScale
 70
     0
300
1:5
140
1.0
141
5.0
290
     0
  0
SCALE
  5
4C
102
{ACAD_REACTORS
330
47
102
}
330
47
100
AcDbScale
 70
     0
300
1:8
140
1.0
141
8.0
290
     0
  0
SCALE
  5
4D
102
{ACAD_REACTORS
330
47
102
}
330
47
100
AcDbScale
 70
     0
300
1:10
140
1.0
141
10.0
290
     0
  0
SCALE
  5
4E
102
{ACAD_REACTORS
330
47
102
}
330
47
100
AcDbScale
 70
     0
300
1:16
140
1.0
141
16.0
290
     0
  0
SCALE
  5
4F
102
{ACAD_REACTORS
330
47
102
}
330
47
100
AcDbScale
 70
     0
300
1:20
140
1.0
141
20.0
290
     0
  0
SCALE
  5
50
102
{ACAD_REACTORS
330
47
102
}
330
47
100
AcDbScale
 70
     0
300
1:30
140
1.0
141
30.0
290
     0
  0
SCALE
  5
51
102
{ACAD_REACTORS
330
47
102
}
330
47
100
AcDbScale
 70
     0
300
1:40
140
1.0
141
40.0
290
     0
  0
SCALE
  5
52
102
{ACAD_REACTORS
330
47
102
}
330
47
100
AcDbScale
 70
     0
300
1:50
140
1.0
141
50.0
290
     0
  0
SCALE
  5
53
102
{ACAD_REACTORS
330
47
102
}
330
47
100
AcDbScale
 70
     0
300
1:100
140
1.0
141
100.0
290
     0
  0
SCALE
  5
54
102
{ACAD_REACTORS
330
47
102
}
330
47
100
AcDbScale
 70
     0
300
2:1
140
2.0
141
1.0
290
     0
  0
SCALE
  5
55
102
{ACAD_REACTORS
330
47
102
}
330
47
100
AcDbScale
 70
     0
300
4:1
140
4.0
141
1.0
290
     0
  0
SCALE
  5
56
102
{ACAD_REACTORS
330
47
102
}
330
47
100
AcDbScale
 70
     0
300
8:1
140
8.0
141
1.0
290
     0
  0
SCALE
  5
57
102
{ACAD_REACTORS
330
47
102
}
330
47
100
AcDbScale
 70
     0
300
10:1
140
10.0
141
1.0
290
     0
  0
SCALE
  5
58
102
{ACAD_REACTORS
330
47
102
}
330
47
100
AcDbScale
 70
     0
300
100:1
140
100.0
141
1.0
290
     0
  0
SCALE
  5
59
102
{ACAD_REACTORS
330
47
102
}
330
47
100
AcDbScale
 70
     0
300
1/128" = 1'-0"
140
0.0078125
141
12.0
290
     0
  0
SCALE
  5
5A
102
{ACAD_REACTORS
330
47
102
}
330
47
100
AcDbScale
 70
     0
300
1/64" = 1'-0"
140
0.015625
141
12.0
290
     0
  0
SCALE
  5
5B
102
{ACAD_REACTORS
330
47
102
}
330
47
100
AcDbScale
 70
     0
300
1/32" = 1'-0"
140
0.03125
141
12.0
290
     0
  0
SCALE
  5
5C
102
{ACAD_REACTORS
330
47
102
}
330
47
100
AcDbScale
 70
     0
300
1/16" = 1'-0"
140
0.0625
141
12.0
290
     0
  0
SCALE
  5
5D
102
{ACAD_REACTORS
330
47
102
}
330
47
100
AcDbScale
 70
     0
300
3/32" = 1'-0"
140
0.09375
141
12.0
290
     0
  0
SCALE
  5
5E
102
{ACAD_REACTORS
330
47
102
}
330
47
100
AcDbScale
 70
     0
300
1/8" = 1'-0"
140
0.125
141
12.0
290
     0
  0
SCALE
  5
5F
102
{ACAD_REACTORS
330
47
102
}
330
47
100
AcDbScale
 70
     0
300
3/16" = 1'-0"
140
0.1875
141
12.0
290
     0
  0
SCALE
  5
60
102
{ACAD_REACTORS
330
47
102
}
330
47
100
AcDbScale
 70
     0
300
1/4" = 1'-0"
140
0.25
141
12.0
290
     0
  0
SCALE
  5
61
102
{ACAD_REACTORS
330
47
102
}
330
47
100
AcDbScale
 70
     0
300
3/8" = 1'-0"
140
0.375
141
12.0
290
     0
  0
SCALE
  5
62
102
{ACAD_REACTORS
330
47
102
}
330
47
100
AcDbScale
 70
     0
300
1/2" = 1'-0"
140
0.5
141
12.0
290
     0
  0
SCALE
  5
63
102
{ACAD_REACTORS
330
47
102
}
330
47
100
AcDbScale
 70
     0
300
3/4" = 1'-0"
140
0.75
141
12.0
290
     0
  0
SCALE
  5
64
102
{ACAD_REACTORS
330
47
102
}
330
47
100
AcDbScale
 70
     0
300
1" = 1'-0"
140
1.0
141
12.0
290
     0
  0
SCALE
  5
65
102
{ACAD_REACTORS
330
47
102
}
330
47
100
AcDbScale
 70
     0
300
1-1/2" = 1'-0"
140
1.5
141
12.0
290
     0
  0
SCALE
  5
66
102
{ACAD_REACTORS
330
47
102
}
330
47
100
AcDbScale
 70
     0
300
3" = 1'-0"
140
3.0
141
12.0
290
     0
  0
SCALE
  5
67
102
{ACAD_REACTORS
330
47
102
}
330
47
100
AcDbScale
 70
     0
300
6" = 1'-0"
140
6.0
141
12.0
290
     0
  0
SCALE
  5
68
102
{ACAD_REACTORS
330
47
102
}
330
47
100
AcDbScale
 70
     0
300
1'-0" = 1'-0"
140
12.0
141
12.0
290
     0
  0
ENDSEC
  0
EOF
